HIERARCHY
ROOT hip
{
  OFFSET 0 0 0
  CHANNELS 6 Xposition Yposition Zposition Zrotation Yrotation Xrotation
  JOINT abdomen
  {
    OFFSET 0 20.6881 -0.73152
    CHANNELS 3 Zrotation Xrotation Yrotation
    JOINT chest
    {
      OFFSET 0 11.7043 -0.48768
      CHANNELS 3 Zrotation Xrotation Yrotation
      JOINT neck
      {
        OFFSET 0 22.1894 -2.19456
        CHANNELS 3 Zrotation Xrotation Yrotation
        JOINT head
        {
          OFFSET -0.24384 7.07133 1.2192
          CHANNELS 3 Zrotation Xrotation Yrotation
          JOINT leftEye
          {
            OFFSET 4.14528 8.04674 8.04672
            CHANNELS 3 Zrotation Xrotation Yrotation
            End Site
            {
              OFFSET 1 0 0
            }
          }
          JOINT rightEye
          {
            OFFSET -3.6576 8.04674 8.04672
            CHANNELS 3 Zrotation Xrotation Yrotation
            End Site
            {
              OFFSET 1 0 0
            }
          }
        }
      }
      JOINT rCollar
      {
        OFFSET -2.68224 19.2634 -4.8768
        CHANNELS 3 Zrotation Xrotation Yrotation
        JOINT rShldr
        {
          OFFSET -8.77824 -1.95073 1.46304
          CHANNELS 3 Zrotation Xrotation Yrotation
          JOINT rForeArm
          {
            OFFSET -28.1742 -1.7115 0.48768
            CHANNELS 3 Zrotation Xrotation Yrotation
            JOINT rHand
            {
              OFFSET -22.5879 0.773209 7.07136
              CHANNELS 3 Zrotation Xrotation Yrotation
              JOINT rThumb1
              {
                OFFSET -1.2192 -0.487915 3.41376
                CHANNELS 3 Zrotation Xrotation Yrotation
                JOINT rThumb2
                {
                  OFFSET -3.37035 -0.52449 3.41376
                  CHANNELS 3 Zrotation Xrotation Yrotation
                  End Site
                  {
                    OFFSET -1.78271 -1.18214 1.43049
                  }
                }
              }
              JOINT rIndex1
              {
                OFFSET -7.75947 0.938293 5.60832
                CHANNELS 3 Zrotation Xrotation Yrotation
                JOINT rIndex2
                {
                  OFFSET -2.54057 -0.884171 1.56538
                  CHANNELS 3 Zrotation Xrotation Yrotation
                  End Site
                  {
                    OFFSET -1.62519 -0.234802 1.16502
                  }
                }
              }
              JOINT rMid1
              {
                OFFSET -8.24714 1.18213 3.41376
                CHANNELS 3 Zrotation Xrotation Yrotation
                JOINT rMid2
                {
                  OFFSET -3.10165 -0.590103 1.0647
                  CHANNELS 3 Zrotation Xrotation Yrotation
                  End Site
                  {
                    OFFSET -2.48547 -0.328903 0.83742
                  }
                }
              }
              JOINT rRing1
              {
                OFFSET -8.82822 0.546677 1.51678
                CHANNELS 3 Zrotation Xrotation Yrotation
                JOINT rRing2
                {
                  OFFSET -2.60934 -0.819778 -0.0198488
                  CHANNELS 3 Zrotation Xrotation Yrotation
                  End Site
                  {
                    OFFSET -2.33842 -0.294052 0.168128
                  }
                }
              }
              JOINT rPinky1
              {
                OFFSET -8.27202 -0.0477905 -0.4584
                CHANNELS 3 Zrotation Xrotation Yrotation
                JOINT rPinky2
                {
                  OFFSET -1.82734 -0.647385 -0.700984
                  CHANNELS 3 Zrotation Xrotation Yrotation
                  End Site
                  {
                    OFFSET -1.69225 -0.51767 -0.607171
                  }
                }
              }
            }
          }
        }
      }
      JOINT lCollar
      {
        OFFSET 2.68224 19.2634 -4.8768
        CHANNELS 3 Zrotation Xrotation Yrotation
        JOINT lShldr
        {
          OFFSET 8.77824 -1.95073 1.46304
          CHANNELS 3 Zrotation Xrotation Yrotation
          JOINT lForeArm
          {
            OFFSET 28.1742 -1.7115 0.48768
            CHANNELS 3 Zrotation Xrotation Yrotation
            JOINT lHand
            {
              OFFSET 22.5879 0.773209 7.07136
              CHANNELS 3 Zrotation Xrotation Yrotation
              JOINT lThumb1
              {
                OFFSET 1.2192 -0.487915 3.41376
                CHANNELS 3 Zrotation Xrotation Yrotation
                JOINT lThumb2
                {
                  OFFSET 3.37035 -0.52449 3.41376
                  CHANNELS 3 Zrotation Xrotation Yrotation
                  End Site
                  {
                    OFFSET 1.78271 -1.18214 1.43049
                  }
                }
              }
              JOINT lIndex1
              {
                OFFSET 7.75947 0.938293 5.60832
                CHANNELS 3 Zrotation Xrotation Yrotation
                JOINT lIndex2
                {
                  OFFSET 2.54057 -0.884171 1.56538
                  CHANNELS 3 Zrotation Xrotation Yrotation
                  End Site
                  {
                    OFFSET 1.62519 -0.234802 1.16502
                  }
                }
              }
              JOINT lMid1
              {
                OFFSET 8.24714 1.18213 3.41376
                CHANNELS 3 Zrotation Xrotation Yrotation
                JOINT lMid2
                {
                  OFFSET 3.10165 -0.590103 1.0647
                  CHANNELS 3 Zrotation Xrotation Yrotation
                  End Site
                  {
                    OFFSET 2.48547 -0.328903 0.83742
                  }
                }
              }
              JOINT lRing1
              {
                OFFSET 8.82822 0.546677 1.51678
                CHANNELS 3 Zrotation Xrotation Yrotation
                JOINT lRing2
                {
                  OFFSET 2.60934 -0.819778 -0.0198488
                  CHANNELS 3 Zrotation Xrotation Yrotation
                  End Site
                  {
                    OFFSET 2.33842 -0.294052 0.168128
                  }
                }
              }
              JOINT lPinky1
              {
                OFFSET 8.27202 -0.0477905 -0.4584
                CHANNELS 3 Zrotation Xrotation Yrotation
                JOINT lPinky2
                {
                  OFFSET 1.82734 -0.647385 -0.700984
                  CHANNELS 3 Zrotation Xrotation Yrotation
                  End Site
                  {
                    OFFSET 1.69225 -0.51767 -0.607171
                  }
                }
              }
            }
          }
        }
      }
    }
  }
  JOINT rButtock
  {
    OFFSET -8.77824 4.35084 1.2192
    CHANNELS 3 Zrotation Xrotation Yrotation
    JOINT rThigh
    {
      OFFSET 0 -1.70687 -2.19456
      CHANNELS 3 Zrotation Xrotation Yrotation
      JOINT rShin
      {
        OFFSET 0 -36.8199 0.73152
        CHANNELS 3 Zrotation Xrotation Yrotation
        JOINT rFoot
        {
          OFFSET 0.73152 -45.1104 -5.12064
          CHANNELS 3 Zrotation Xrotation Yrotation
          End Site
          {
            OFFSET -1.1221 -3.69964 12.103
          }
        }
      }
    }
  }
  JOINT lButtock
  {
    OFFSET 8.77824 4.35084 1.2192
    CHANNELS 3 Zrotation Xrotation Yrotation
    JOINT lThigh
    {
      OFFSET 0 -1.70687 -2.19456
      CHANNELS 3 Zrotation Xrotation Yrotation
      JOINT lShin
      {
        OFFSET 0 -36.8199 0.73152
        CHANNELS 3 Zrotation Xrotation Yrotation
        JOINT lFoot
        {
          OFFSET -0.73152 -45.1104 -5.12064
          CHANNELS 3 Zrotation Xrotation Yrotation
          End Site
          {
            OFFSET 1.1221 -3.69964 12.103
          }
        }
      }
    }
  }
}
MOTION
Frames:	10
Frame Time:	0.00833333
0.0 0.0 0.0 0.0 0.0 0.0 0.0 0.0 0.0 0.0 0.0 0.0 0.0 0.0 0.0 0.0 0.0 0.0 0.0 0.0 0.0 0.0 0.0 0.0 0.0 0.0 0.0 0.0 0.0 0.0 0.0 0.0 0.0 0.0 0.0 0.0 0.0 0.0 0.0 0.0 0.0 0.0 0.0 0.0 0.0 0.0 0.0 0.0 0.0 0.0 0.0 0.0 0.0 0.0 0.0 0.0 0.0 0.0 0.0 0.0 0.0 0.0 0.0 0.0 0.0 0.0 0.0 0.0 0.0 0.0 0.0 0.0 0.0 0.0 0.0 0.0 0.0 0.0 0.0 0.0 0.0 0.0 0.0 0.0 0.0 0.0 0.0 0.0 0.0 0.0 0.0 0.0 0.0 0.0 0.0 0.0 0.0 0.0 0.0 0.0 0.0 0.0 0.0 0.0 0.0 0.0 0.0 0.0 0.0 0.0 0.0 0.0 0.0 0.0 0.0 0.0 0.0 0.0 0.0 0.0 0.0 0.0 0.0 0.0 0.0 0.0 0.0 0.0 0.0 0.0 0.0 0.0
-18.1211 55.2236 -191.104 0.0 -0.0 0.0 -0.0 -0.0 -0.0 0.0 0.0 -0.0 10.034043 15.923643 138.388627 -2.970543 18.523473 -139.311015 0.0 -0.0 -0.0 0.0 -0.0 -0.0 -142.586389 40.121077 146.977594 -152.013847 -2.481509 171.125775 13.753149 1.600386 -1.535025 -17.517753 45.365511 5.704912 -172.745809 -10.423727 89.92934 -7.813669 -50.091919 4.942475 88.792192 -75.499035 40.049684 99.392206 -57.112561 40.366782 -82.840589 61.110826 74.532293 -13.601232 41.013607 9.250262 -0.000142 -0.018512 -0.005816 -3.391572 29.344359 4.679812 -161.040457 68.917197 -151.098866 -22.156602 -36.019909 -24.650147 159.220516 -48.028485 -170.415257 164.503651 -3.538009 -157.712414 -165.190418 -4.876486 -154.133242 162.624115 50.929035 -136.909532 -5.435778 -5.421513 0.582451 42.71954 29.191608 -35.941319 10.571294 15.013433 -6.865128 71.604289 50.678806 -44.68483 -173.123457 -66.297779 -137.614274 12.168253 32.709834 -12.600911 145.099706 -1.521107 178.650165 -22.267195 31.38233 5.112412 140.975762 -0.021062 138.018014 20.056908 -38.690903 23.960898 -180.0 75.749642 -0.0 -180.0 73.473292 -180.0 5.025459 -5.947284 123.870029 -1.319393 -7.283167 59.66918 -180.0 75.749642 -0.0 -180.0 73.473292 -180.0 5.864878 -4.414665 123.647879 -10.335123 -30.278116 64.516666
-18.1177 55.2221 -191.104 0.0 -0.0 0.0 -0.0 -4.771896 -180.0 0.0 -4.771896 -180.0 10.653412 15.037204 132.142383 -3.918791 17.948196 -132.93335 -0.0 0.0 -0.0 -0.0 0.0 -0.0 3.542039 -62.05305 -13.039183 -129.648649 67.913508 128.259503 165.747735 -4.734924 152.848221 -165.66997 46.5476 139.043511 -0.543938 0.536215 0.086055 20.978465 -33.153805 -14.279431 -108.427673 34.160977 91.742903 1.905962 20.113838 -11.675069 -36.036059 51.723116 29.832321 -170.085807 -25.053816 147.150816 -145.122644 1.080237 -179.467674 -144.671623 -5.180596 -178.343617 32.017443 83.320556 6.228541 -11.62891 -23.346177 -13.853801 33.837732 -85.66573 55.255002 1.946732 6.306312 -17.604482 163.142385 -0.713667 -153.697768 -116.079788 -68.387559 -99.288962 179.373341 -16.877168 -89.359733 17.158742 -45.755479 1.388982 90.225558 41.072425 -75.796697 14.967363 40.465838 1.04923 160.937898 -7.488186 -143.367502 -9.369197 -8.697286 0.596495 69.297282 72.946551 -87.017042 -86.438989 86.415207 77.991477 7.144637 -15.70735 6.727898 79.166262 -55.470786 76.797083 -180.0 75.749642 -0.0 -180.0 73.473292 -180.0 5.025459 -5.947284 123.870029 -1.319393 -7.283167 59.66918 -180.0 75.749642 -0.0 -180.0 73.473292 -180.0 5.864878 -4.414665 123.647879 -10.335123 -30.278116 64.516666
-18.1207 55.2216 -191.108 0.0 -0.0 0.0 -0.0 -0.0 -0.0 0.0 0.0 -0.0 7.77234 18.013368 156.222461 0.013528 19.567436 -157.458586 -0.0 -0.0 0.0 -0.0 -0.0 0.0 -153.578749 7.463415 159.321023 -152.257752 2.486942 163.634451 -103.132619 72.963019 88.61612 52.173951 -66.632449 38.598751 66.257853 -46.842795 22.116955 -101.02251 37.426202 69.040627 -157.327488 -28.217551 122.490444 29.05023 -12.562876 -10.051872 -0.057679 0.167876 0.032027 -174.138937 -28.057222 144.235048 -72.96523 -72.143029 -89.99016 76.634179 -86.714553 50.807016 1.134951 3.04054 1.043633 -150.307065 13.019817 -143.850089 157.797051 -22.115459 -165.467367 -8.698466 16.805924 -20.923339 -9.073418 -50.425945 29.657868 -171.93531 -12.828821 -144.3254 176.927678 -14.532472 -89.65859 44.430908 -17.37889 -4.709105 -2.325555 -3.867927 1.259147 -92.977985 -60.469719 -49.689136 8.41658 20.880424 -5.645309 -40.327531 -72.000361 -17.097124 0.021291 -1.725169 0.542387 161.321374 32.516674 -166.003037 125.807905 -27.87746 123.551547 -5.553791 1.766507 -0.705175 -180.0 75.749642 -0.0 -180.0 73.473292 -180.0 5.025459 -5.947284 123.870029 -1.319393 -7.283167 59.66918 -180.0 75.749642 -0.0 -180.0 73.473292 -180.0 5.864878 -4.414665 123.647879 -10.335123 -30.278116 64.516666
-18.1146 55.2197 -191.111 0.0 -0.0 0.0 -0.0 -4.771896 -180.0 0.0 -4.771896 -180.0 10.653412 15.037204 132.142383 -3.918791 17.948196 -132.93335 -0.0 0.0 -0.0 -0.0 0.0 -0.0 3.542039 -62.05305 -13.039183 -179.033765 -14.577156 165.893241 110.618214 72.610325 -132.607617 -165.659392 46.564268 139.036425 -2.925532 2.862225 0.520678 -66.521341 26.738622 61.555475 12.216524 -21.784719 -5.120188 2.2519 1.394956 3.870997 23.903801 -61.333833 1.399383 19.004491 -41.694568 3.698872 -72.757246 -72.143382 -89.772159 76.676064 -86.710247 50.861021 -5.648164 -12.860949 -5.301603 -87.741431 -54.429506 -85.160991 33.837732 -85.66573 55.255002 1.946732 6.306312 -17.604482 164.075313 -6.564674 -153.444759 -128.760344 -65.176789 -111.148199 -1.590029 -1.575931 0.222909 -4.694185 -6.967375 4.934213 77.667448 43.02965 -64.538509 -178.777673 -46.604393 -119.866487 0.057679 0.167876 -0.032027 44.505175 58.240571 -35.366439 0.014868 -1.323148 0.415899 -1.297451 -21.756571 2.289784 143.937873 8.265083 140.720099 159.654016 56.283465 147.079843 -180.0 75.749642 -0.0 -180.0 73.473292 -180.0 5.025459 -5.947284 123.870029 -1.319393 -7.283167 59.66918 -180.0 75.749642 -0.0 -180.0 73.473292 -180.0 5.864878 -4.414665 123.647879 -10.335123 -30.278116 64.516666
-18.1178 55.218500000000006 -191.113 0.0 -0.0 0.0 -0.0 -0.0 -0.0 0.0 0.0 -0.0 7.77234 18.013368 156.222461 0.013528 19.567436 -157.458586 -0.0 0.0 -0.0 -0.0 0.0 -0.0 -142.973735 39.431617 147.390037 -152.876061 -8.760784 171.26332 0.191137 35.725265 2.116926 -1.448921 4.640199 -0.100176 51.059793 -41.203951 12.856726 -3.944815 -59.601545 -39.285397 10.211155 -18.05077 -4.56389 88.352422 -57.62592 44.252321 -160.673322 -6.667841 143.245105 -1.828693 21.23857 4.732194 0.000474 0.063775 0.020036 -161.798201 31.977804 166.529683 -86.000836 -50.498128 -84.371009 -144.743963 7.190148 -143.981734 159.220516 -48.028485 -170.415257 -1.798516 18.086937 -22.906726 175.661097 79.319428 -178.792502 4.440974 14.093458 -0.064268 -87.247882 -50.68899 -36.415345 137.666694 17.505217 -101.07333 173.659579 -52.758388 -119.868112 19.252224 43.682795 -21.371893 0.057679 0.167876 -0.032027 -142.84339 -74.309707 -114.189089 145.099706 -1.521107 178.650165 -22.267195 31.38233 5.112412 -25.916531 79.094076 -10.831563 166.895197 58.289733 143.961062 -180.0 75.749642 -0.0 -180.0 73.473292 -180.0 -5.864878 -4.414665 -123.647879 5.828746 -19.599706 -62.934765 -180.0 75.749642 -0.0 -180.0 73.473292 -180.0 7.26445 -6.891104 98.805537 78.037268 -74.275227 174.254323
-18.1216 55.217499999999994 -191.114 0.0 -0.0 0.0 -0.0 -0.0 -0.0 0.0 0.0 -0.0 10.034043 15.923643 138.388627 -2.970543 18.523473 -139.311015 0.0 -0.0 -0.0 0.0 -0.0 -0.0 -142.586389 40.121077 146.977594 -152.013847 -2.481509 171.125775 13.753149 1.600386 -1.535025 -17.517753 45.365511 5.704912 99.080965 -51.215433 44.800906 -135.006701 22.197184 94.760113 -50.386399 40.826202 40.02487 -5.778578 15.912954 -8.029117 -36.036059 51.723116 29.832321 14.756345 -43.892765 -3.429022 -145.119721 0.310087 -179.225753 -65.597035 -77.920866 -97.445048 12.632866 42.933991 10.532639 -82.428543 -52.516845 -79.476571 159.220516 -48.028485 -170.415257 164.503651 -3.538009 -157.712414 -165.190418 -4.876486 -154.133242 162.624115 50.929035 -136.909532 -5.435778 -5.421513 0.582451 42.71954 29.191608 -35.941319 10.571294 15.013433 -6.865128 71.604289 50.678806 -44.68483 -173.123457 -66.297779 -137.614274 12.168253 32.709834 -12.600911 145.099706 -1.521107 178.650165 -22.267195 31.38233 5.112412 140.975762 -0.021062 138.018014 20.056908 -38.690903 23.960898 -180.0 75.749642 -0.0 -180.0 73.473292 -180.0 5.025459 -5.947284 123.870029 -1.319393 -7.283167 59.66918 -180.0 75.749642 -0.0 -180.0 73.473292 -180.0 5.864878 -4.414665 123.647879 -10.335123 -30.278116 64.516666
-18.1196 55.215599999999995 -191.115 0.0 -0.0 0.0 -0.0 -0.0 -0.0 0.0 0.0 -0.0 7.77234 18.013368 156.222461 0.013528 19.567436 -157.458586 -0.0 0.0 -0.0 -0.0 0.0 -0.0 -142.973735 39.431617 147.390037 -151.979553 -2.326003 170.955065 -172.085074 -7.728783 146.217179 162.138037 -36.4898 139.30245 -162.891538 -0.575714 89.353363 -100.023245 8.256166 42.802587 -46.208543 39.652969 36.318179 -67.420155 57.74042 41.939517 -10.975806 25.789868 7.640203 -42.522609 59.335917 33.616162 -145.119466 0.267775 -179.212461 -144.177805 72.099556 169.680989 -1.203484 -3.047547 -1.116064 61.833305 86.146046 -25.874048 159.220516 -48.028485 -170.415257 -1.798516 18.086937 -22.906726 -27.041389 -83.225466 11.099927 -170.742163 -16.280801 -143.906459 -88.928376 -50.831327 -37.599672 13.495635 -56.999258 35.78808 -0.184726 -0.300416 0.104009 -92.810959 -61.179321 -49.897855 0.057679 0.167876 -0.032027 166.852355 -5.837018 -143.442867 0.000142 -0.01849 0.005809 85.442129 78.75557 -88.512252 -9.96654 32.461829 -8.6263 27.637514 -40.123582 26.230966 -180.0 75.749642 -0.0 -180.0 73.473292 -180.0 -5.864878 -4.414665 -123.647879 5.828746 -19.599706 -62.934765 -180.0 75.749642 -0.0 -180.0 73.473292 -180.0 7.26445 -6.891104 98.805537 78.037268 -74.275227 174.254323
-18.1241 55.215599999999995 -191.115 0.0 -0.0 0.0 -0.0 -0.0 -0.0 0.0 0.0 -0.0 7.77234 18.013368 156.222461 0.013528 19.567436 -157.458586 -0.0 0.0 -0.0 -0.0 0.0 -0.0 -142.973735 39.431617 147.390037 -151.979485 -2.325519 170.955038 171.403303 -46.721131 136.743824 176.903092 2.637928 145.304856 -2.925532 2.862225 0.520678 11.757088 -15.366817 -6.887805 37.215945 -57.917763 -0.643014 -155.914906 -7.478451 104.204014 -82.840589 61.110826 74.532293 -7.310397 30.15101 4.060639 0.000474 0.063839 0.020056 -166.762967 -45.819373 177.40413 -141.577643 1.570229 -138.572663 -159.075599 56.243957 -147.663949 159.220516 -48.028485 -170.415257 -1.798516 18.086937 -22.906726 -27.041389 -83.225466 11.099927 -170.742163 -16.280801 -143.906459 -88.928376 -50.831327 -37.599672 13.495635 -56.999258 35.78808 -0.184726 -0.300416 0.104009 178.456679 -20.791311 -108.946727 0.057679 0.167876 -0.032027 166.852355 -5.837018 -143.442867 0.000142 -0.01849 0.005809 85.442129 78.75557 -88.512252 -9.96654 32.461829 -8.6263 27.637514 -40.123582 26.230966 -180.0 75.749642 -0.0 -180.0 73.473292 -180.0 -5.864878 -4.414665 -123.647879 5.828746 -19.599706 -62.934765 -180.0 75.749642 -0.0 -180.0 73.473292 -180.0 7.26445 -6.891104 98.805537 78.037268 -74.275227 174.254323
-18.1272 55.2141 -191.116 0.0 -0.0 0.0 -0.0 -0.0 -0.0 0.0 0.0 -0.0 7.77234 18.013368 156.222461 0.013528 19.567436 -157.458586 -0.0 0.0 -0.0 -0.0 0.0 -0.0 -142.973735 39.431617 147.390037 -152.876061 -8.760784 171.26332 0.191137 35.725265 2.116926 -1.448921 4.640199 -0.100176 51.059793 -41.203951 12.856726 -3.944815 -59.601545 -39.285397 10.211155 -18.05077 -4.56389 88.352422 -57.62592 44.252321 -160.673322 -6.667841 143.245105 -1.828693 21.23857 4.732194 0.000474 0.063775 0.020036 -161.798201 31.977804 166.529683 -86.000836 -50.498128 -84.371009 -144.743963 7.190148 -143.981734 159.220516 -48.028485 -170.415257 -1.798516 18.086937 -22.906726 175.661097 79.319428 -178.792502 4.440974 14.093458 -0.064268 -87.247882 -50.68899 -36.415345 137.666694 17.505217 -101.07333 173.659579 -52.758388 -119.868112 19.252224 43.682795 -21.371893 0.057679 0.167876 -0.032027 -142.84339 -74.309707 -114.189089 145.099706 -1.521107 178.650165 -22.267195 31.38233 5.112412 -25.916531 79.094076 -10.831563 166.895197 58.289733 143.961062 -180.0 75.749642 -0.0 -180.0 73.473292 -180.0 -5.864878 -4.414665 -123.647879 5.828746 -19.599706 -62.934765 -180.0 75.749642 -0.0 -180.0 73.473292 -180.0 7.26445 -6.891104 98.805537 78.037268 -74.275227 174.254323
